<?xml version="1.0" encoding="utf-8" standalone="no"?>
<!DOCTYPE svg PUBLIC "-//W3C//DTD SVG 1.1//EN"
  "http://www.w3.org/Graphics/SVG/1.1/DTD/svg11.dtd">
<svg xmlns:xlink="http://www.w3.org/1999/xlink" width="404.544479pt" height="252.317344pt" viewBox="0 0 404.544479 252.317344" xmlns="http://www.w3.org/2000/svg" version="1.1">
 <metadata>
  <rdf:RDF xmlns:dc="http://purl.org/dc/elements/1.1/" xmlns:cc="http://creativecommons.org/ns#" xmlns:rdf="http://www.w3.org/1999/02/22-rdf-syntax-ns#">
   <cc:Work>
    <dc:type rdf:resource="http://purl.org/dc/dcmitype/StillImage"/>
    <dc:date>2022-08-15T10:00:26.161761</dc:date>
    <dc:format>image/svg+xml</dc:format>
    <dc:creator>
     <cc:Agent>
      <dc:title>Matplotlib v3.5.2, https://matplotlib.org/</dc:title>
     </cc:Agent>
    </dc:creator>
   </cc:Work>
  </rdf:RDF>
 </metadata>
 <defs>
  <style type="text/css">*{stroke-linejoin: round; stroke-linecap: butt}</style>
 </defs>
 <g id="figure_1">
  <g id="patch_1">
   <path d="M 0 252.317344 
L 404.544479 252.317344 
L 404.544479 0 
L 0 0 
L 0 252.317344 
z
" style="fill: none"/>
  </g>
  <g id="axes_1">
   <g id="patch_2">
    <path d="M 46.965625 228.439219 
L 381.765625 228.439219 
L 381.765625 10.999219 
L 46.965625 10.999219 
z
" style="fill: #ffffff"/>
   </g>
   <g id="patch_3">
    <path d="M 62.183807 228.439219 
L 68.27108 228.439219 
L 68.27108 18.764933 
L 62.183807 18.764933 
z
" clip-path="url(#p52abd06e73)" style="fill: #1f77b4"/>
   </g>
   <g id="patch_4">
    <path d="M 68.27108 228.439219 
L 74.358352 228.439219 
L 74.358352 48.274647 
L 68.27108 48.274647 
z
" clip-path="url(#p52abd06e73)" style="fill: #1f77b4"/>
   </g>
   <g id="patch_5">
    <path d="M 74.358352 228.439219 
L 80.445625 228.439219 
L 80.445625 82.44379 
L 74.358352 82.44379 
z
" clip-path="url(#p52abd06e73)" style="fill: #1f77b4"/>
   </g>
   <g id="patch_6">
    <path d="M 80.445625 228.439219 
L 86.532898 228.439219 
L 86.532898 80.890647 
L 80.445625 80.890647 
z
" clip-path="url(#p52abd06e73)" style="fill: #1f77b4"/>
   </g>
   <g id="patch_7">
    <path d="M 86.532898 228.439219 
L 92.62017 228.439219 
L 92.62017 111.953504 
L 86.532898 111.953504 
z
" clip-path="url(#p52abd06e73)" style="fill: #1f77b4"/>
   </g>
   <g id="patch_8">
    <path d="M 92.62017 228.439219 
L 98.707443 228.439219 
L 98.707443 118.166076 
L 92.62017 118.166076 
z
" clip-path="url(#p52abd06e73)" style="fill: #1f77b4"/>
   </g>
   <g id="patch_9">
    <path d="M 98.707443 228.439219 
L 104.794716 228.439219 
L 104.794716 124.378647 
L 98.707443 124.378647 
z
" clip-path="url(#p52abd06e73)" style="fill: #1f77b4"/>
   </g>
   <g id="patch_10">
    <path d="M 104.794716 228.439219 
L 110.881989 228.439219 
L 110.881989 169.41979 
L 104.794716 169.41979 
z
" clip-path="url(#p52abd06e73)" style="fill: #1f77b4"/>
   </g>
   <g id="patch_11">
    <path d="M 110.881989 228.439219 
L 116.969261 228.439219 
L 116.969261 184.951219 
L 110.881989 184.951219 
z
" clip-path="url(#p52abd06e73)" style="fill: #1f77b4"/>
   </g>
   <g id="patch_12">
    <path d="M 116.969261 228.439219 
L 123.056534 228.439219 
L 123.056534 195.823219 
L 116.969261 195.823219 
z
" clip-path="url(#p52abd06e73)" style="fill: #1f77b4"/>
   </g>
   <g id="patch_13">
    <path d="M 123.056534 228.439219 
L 129.143807 228.439219 
L 129.143807 194.270076 
L 123.056534 194.270076 
z
" clip-path="url(#p52abd06e73)" style="fill: #1f77b4"/>
   </g>
   <g id="patch_14">
    <path d="M 129.143807 228.439219 
L 135.23108 228.439219 
L 135.23108 211.354647 
L 129.143807 211.354647 
z
" clip-path="url(#p52abd06e73)" style="fill: #1f77b4"/>
   </g>
   <g id="patch_15">
    <path d="M 135.23108 228.439219 
L 141.318352 228.439219 
L 141.318352 205.142076 
L 135.23108 205.142076 
z
" clip-path="url(#p52abd06e73)" style="fill: #1f77b4"/>
   </g>
   <g id="patch_16">
    <path d="M 141.318352 228.439219 
L 147.405625 228.439219 
L 147.405625 217.567219 
L 141.318352 217.567219 
z
" clip-path="url(#p52abd06e73)" style="fill: #1f77b4"/>
   </g>
   <g id="patch_17">
    <path d="M 147.405625 228.439219 
L 153.492898 228.439219 
L 153.492898 216.014076 
L 147.405625 216.014076 
z
" clip-path="url(#p52abd06e73)" style="fill: #1f77b4"/>
   </g>
   <g id="patch_18">
    <path d="M 153.492898 228.439219 
L 159.58017 228.439219 
L 159.58017 217.567219 
L 153.492898 217.567219 
z
" clip-path="url(#p52abd06e73)" style="fill: #1f77b4"/>
   </g>
   <g id="patch_19">
    <path d="M 159.58017 228.439219 
L 165.667443 228.439219 
L 165.667443 222.226647 
L 159.58017 222.226647 
z
" clip-path="url(#p52abd06e73)" style="fill: #1f77b4"/>
   </g>
   <g id="patch_20">
    <path d="M 165.667443 228.439219 
L 171.754716 228.439219 
L 171.754716 211.354647 
L 165.667443 211.354647 
z
" clip-path="url(#p52abd06e73)" style="fill: #1f77b4"/>
   </g>
   <g id="patch_21">
    <path d="M 171.754716 228.439219 
L 177.841989 228.439219 
L 177.841989 219.120362 
L 171.754716 219.120362 
z
" clip-path="url(#p52abd06e73)" style="fill: #1f77b4"/>
   </g>
   <g id="patch_22">
    <path d="M 177.841989 228.439219 
L 183.929261 228.439219 
L 183.929261 217.567219 
L 177.841989 217.567219 
z
" clip-path="url(#p52abd06e73)" style="fill: #1f77b4"/>
   </g>
   <g id="patch_23">
    <path d="M 183.929261 228.439219 
L 190.016534 228.439219 
L 190.016534 214.460933 
L 183.929261 214.460933 
z
" clip-path="url(#p52abd06e73)" style="fill: #1f77b4"/>
   </g>
   <g id="patch_24">
    <path d="M 190.016534 228.439219 
L 196.103807 228.439219 
L 196.103807 225.332933 
L 190.016534 225.332933 
z
" clip-path="url(#p52abd06e73)" style="fill: #1f77b4"/>
   </g>
   <g id="patch_25">
    <path d="M 196.103807 228.439219 
L 202.19108 228.439219 
L 202.19108 222.226647 
L 196.103807 222.226647 
z
" clip-path="url(#p52abd06e73)" style="fill: #1f77b4"/>
   </g>
   <g id="patch_26">
    <path d="M 202.19108 228.439219 
L 208.278352 228.439219 
L 208.278352 223.77979 
L 202.19108 223.77979 
z
" clip-path="url(#p52abd06e73)" style="fill: #1f77b4"/>
   </g>
   <g id="patch_27">
    <path d="M 208.278352 228.439219 
L 214.365625 228.439219 
L 214.365625 219.120362 
L 208.278352 219.120362 
z
" clip-path="url(#p52abd06e73)" style="fill: #1f77b4"/>
   </g>
   <g id="patch_28">
    <path d="M 214.365625 228.439219 
L 220.452898 228.439219 
L 220.452898 228.439219 
L 214.365625 228.439219 
z
" clip-path="url(#p52abd06e73)" style="fill: #1f77b4"/>
   </g>
   <g id="patch_29">
    <path d="M 220.452898 228.439219 
L 226.54017 228.439219 
L 226.54017 226.886076 
L 220.452898 226.886076 
z
" clip-path="url(#p52abd06e73)" style="fill: #1f77b4"/>
   </g>
   <g id="patch_30">
    <path d="M 226.54017 228.439219 
L 232.627443 228.439219 
L 232.627443 226.886076 
L 226.54017 226.886076 
z
" clip-path="url(#p52abd06e73)" style="fill: #1f77b4"/>
   </g>
   <g id="patch_31">
    <path d="M 232.627443 228.439219 
L 238.714716 228.439219 
L 238.714716 226.886076 
L 232.627443 226.886076 
z
" clip-path="url(#p52abd06e73)" style="fill: #1f77b4"/>
   </g>
   <g id="patch_32">
    <path d="M 238.714716 228.439219 
L 244.801989 228.439219 
L 244.801989 223.77979 
L 238.714716 223.77979 
z
" clip-path="url(#p52abd06e73)" style="fill: #1f77b4"/>
   </g>
   <g id="patch_33">
    <path d="M 244.801989 228.439219 
L 250.889261 228.439219 
L 250.889261 226.886076 
L 244.801989 226.886076 
z
" clip-path="url(#p52abd06e73)" style="fill: #1f77b4"/>
   </g>
   <g id="patch_34">
    <path d="M 250.889261 228.439219 
L 256.976534 228.439219 
L 256.976534 226.886076 
L 250.889261 226.886076 
z
" clip-path="url(#p52abd06e73)" style="fill: #1f77b4"/>
   </g>
   <g id="patch_35">
    <path d="M 256.976534 228.439219 
L 263.063807 228.439219 
L 263.063807 228.439219 
L 256.976534 228.439219 
z
" clip-path="url(#p52abd06e73)" style="fill: #1f77b4"/>
   </g>
   <g id="patch_36">
    <path d="M 263.063807 228.439219 
L 269.15108 228.439219 
L 269.15108 228.439219 
L 263.063807 228.439219 
z
" clip-path="url(#p52abd06e73)" style="fill: #1f77b4"/>
   </g>
   <g id="patch_37">
    <path d="M 269.15108 228.439219 
L 275.238352 228.439219 
L 275.238352 226.886076 
L 269.15108 226.886076 
z
" clip-path="url(#p52abd06e73)" style="fill: #1f77b4"/>
   </g>
   <g id="patch_38">
    <path d="M 275.238352 228.439219 
L 281.325625 228.439219 
L 281.325625 223.77979 
L 275.238352 223.77979 
z
" clip-path="url(#p52abd06e73)" style="fill: #1f77b4"/>
   </g>
   <g id="patch_39">
    <path d="M 281.325625 228.439219 
L 287.412898 228.439219 
L 287.412898 228.439219 
L 281.325625 228.439219 
z
" clip-path="url(#p52abd06e73)" style="fill: #1f77b4"/>
   </g>
   <g id="patch_40">
    <path d="M 287.412898 228.439219 
L 293.50017 228.439219 
L 293.50017 225.332933 
L 287.412898 225.332933 
z
" clip-path="url(#p52abd06e73)" style="fill: #1f77b4"/>
   </g>
   <g id="patch_41">
    <path d="M 293.50017 228.439219 
L 299.587443 228.439219 
L 299.587443 228.439219 
L 293.50017 228.439219 
z
" clip-path="url(#p52abd06e73)" style="fill: #1f77b4"/>
   </g>
   <g id="patch_42">
    <path d="M 299.587443 228.439219 
L 305.674716 228.439219 
L 305.674716 228.439219 
L 299.587443 228.439219 
z
" clip-path="url(#p52abd06e73)" style="fill: #1f77b4"/>
   </g>
   <g id="patch_43">
    <path d="M 305.674716 228.439219 
L 311.761989 228.439219 
L 311.761989 228.439219 
L 305.674716 228.439219 
z
" clip-path="url(#p52abd06e73)" style="fill: #1f77b4"/>
   </g>
   <g id="patch_44">
    <path d="M 311.761989 228.439219 
L 317.849261 228.439219 
L 317.849261 226.886076 
L 311.761989 226.886076 
z
" clip-path="url(#p52abd06e73)" style="fill: #1f77b4"/>
   </g>
   <g id="patch_45">
    <path d="M 317.849261 228.439219 
L 323.936534 228.439219 
L 323.936534 228.439219 
L 317.849261 228.439219 
z
" clip-path="url(#p52abd06e73)" style="fill: #1f77b4"/>
   </g>
   <g id="patch_46">
    <path d="M 323.936534 228.439219 
L 330.023807 228.439219 
L 330.023807 228.439219 
L 323.936534 228.439219 
z
" clip-path="url(#p52abd06e73)" style="fill: #1f77b4"/>
   </g>
   <g id="patch_47">
    <path d="M 330.023807 228.439219 
L 336.11108 228.439219 
L 336.11108 228.439219 
L 330.023807 228.439219 
z
" clip-path="url(#p52abd06e73)" style="fill: #1f77b4"/>
   </g>
   <g id="patch_48">
    <path d="M 336.11108 228.439219 
L 342.198352 228.439219 
L 342.198352 228.439219 
L 336.11108 228.439219 
z
" clip-path="url(#p52abd06e73)" style="fill: #1f77b4"/>
   </g>
   <g id="patch_49">
    <path d="M 342.198352 228.439219 
L 348.285625 228.439219 
L 348.285625 228.439219 
L 342.198352 228.439219 
z
" clip-path="url(#p52abd06e73)" style="fill: #1f77b4"/>
   </g>
   <g id="patch_50">
    <path d="M 348.285625 228.439219 
L 354.372898 228.439219 
L 354.372898 228.439219 
L 348.285625 228.439219 
z
" clip-path="url(#p52abd06e73)" style="fill: #1f77b4"/>
   </g>
   <g id="patch_51">
    <path d="M 354.372898 228.439219 
L 360.46017 228.439219 
L 360.46017 228.439219 
L 354.372898 228.439219 
z
" clip-path="url(#p52abd06e73)" style="fill: #1f77b4"/>
   </g>
   <g id="patch_52">
    <path d="M 360.46017 228.439219 
L 366.547443 228.439219 
L 366.547443 226.886076 
L 360.46017 226.886076 
z
" clip-path="url(#p52abd06e73)" style="fill: #1f77b4"/>
   </g>
   <g id="matplotlib.axis_1">
    <g id="xtick_1">
     <g id="line2d_1">
      <path d="M 60.910855 228.439219 
L 60.910855 10.999219 
" clip-path="url(#p52abd06e73)" style="fill: none; stroke: #b0b0b0; stroke-width: 0.8; stroke-linecap: square"/>
     </g>
     <g id="line2d_2">
      <defs>
       <path id="m900adffbc6" d="M 0 0 
L 0 3.5 
" style="stroke: #000000; stroke-width: 0.8"/>
      </defs>
      <g>
       <use xlink:href="#m900adffbc6" x="60.910855" y="228.439219" style="stroke: #000000; stroke-width: 0.8"/>
      </g>
     </g>
     <g id="text_1">
      <!-- 0 -->
      <g transform="translate(57.729605 243.037656)scale(0.1 -0.1)">
       <defs>
        <path id="DejaVuSans-30" d="M 2034 4250 
Q 1547 4250 1301 3770 
Q 1056 3291 1056 2328 
Q 1056 1369 1301 889 
Q 1547 409 2034 409 
Q 2525 409 2770 889 
Q 3016 1369 3016 2328 
Q 3016 3291 2770 3770 
Q 2525 4250 2034 4250 
z
M 2034 4750 
Q 2819 4750 3233 4129 
Q 3647 3509 3647 2328 
Q 3647 1150 3233 529 
Q 2819 -91 2034 -91 
Q 1250 -91 836 529 
Q 422 1150 422 2328 
Q 422 3509 836 4129 
Q 1250 4750 2034 4750 
z
" transform="scale(0.015625)"/>
       </defs>
       <use xlink:href="#DejaVuSans-30"/>
      </g>
     </g>
    </g>
    <g id="xtick_2">
     <g id="line2d_3">
      <path d="M 106.70048 228.439219 
L 106.70048 10.999219 
" clip-path="url(#p52abd06e73)" style="fill: none; stroke: #b0b0b0; stroke-width: 0.8; stroke-linecap: square"/>
     </g>
     <g id="line2d_4">
      <g>
       <use xlink:href="#m900adffbc6" x="106.70048" y="228.439219" style="stroke: #000000; stroke-width: 0.8"/>
      </g>
     </g>
     <g id="text_2">
      <!-- 5000 -->
      <g transform="translate(93.97548 243.037656)scale(0.1 -0.1)">
       <defs>
        <path id="DejaVuSans-35" d="M 691 4666 
L 3169 4666 
L 3169 4134 
L 1269 4134 
L 1269 2991 
Q 1406 3038 1543 3061 
Q 1681 3084 1819 3084 
Q 2600 3084 3056 2656 
Q 3513 2228 3513 1497 
Q 3513 744 3044 326 
Q 2575 -91 1722 -91 
Q 1428 -91 1123 -41 
Q 819 9 494 109 
L 494 744 
Q 775 591 1075 516 
Q 1375 441 1709 441 
Q 2250 441 2565 725 
Q 2881 1009 2881 1497 
Q 2881 1984 2565 2268 
Q 2250 2553 1709 2553 
Q 1456 2553 1204 2497 
Q 953 2441 691 2322 
L 691 4666 
z
" transform="scale(0.015625)"/>
       </defs>
       <use xlink:href="#DejaVuSans-35"/>
       <use xlink:href="#DejaVuSans-30" x="63.623047"/>
       <use xlink:href="#DejaVuSans-30" x="127.246094"/>
       <use xlink:href="#DejaVuSans-30" x="190.869141"/>
      </g>
     </g>
    </g>
    <g id="xtick_3">
     <g id="line2d_5">
      <path d="M 152.490105 228.439219 
L 152.490105 10.999219 
" clip-path="url(#p52abd06e73)" style="fill: none; stroke: #b0b0b0; stroke-width: 0.8; stroke-linecap: square"/>
     </g>
     <g id="line2d_6">
      <g>
       <use xlink:href="#m900adffbc6" x="152.490105" y="228.439219" style="stroke: #000000; stroke-width: 0.8"/>
      </g>
     </g>
     <g id="text_3">
      <!-- 10000 -->
      <g transform="translate(136.583855 243.037656)scale(0.1 -0.1)">
       <defs>
        <path id="DejaVuSans-31" d="M 794 531 
L 1825 531 
L 1825 4091 
L 703 3866 
L 703 4441 
L 1819 4666 
L 2450 4666 
L 2450 531 
L 3481 531 
L 3481 0 
L 794 0 
L 794 531 
z
" transform="scale(0.015625)"/>
       </defs>
       <use xlink:href="#DejaVuSans-31"/>
       <use xlink:href="#DejaVuSans-30" x="63.623047"/>
       <use xlink:href="#DejaVuSans-30" x="127.246094"/>
       <use xlink:href="#DejaVuSans-30" x="190.869141"/>
       <use xlink:href="#DejaVuSans-30" x="254.492188"/>
      </g>
     </g>
    </g>
    <g id="xtick_4">
     <g id="line2d_7">
      <path d="M 198.27973 228.439219 
L 198.27973 10.999219 
" clip-path="url(#p52abd06e73)" style="fill: none; stroke: #b0b0b0; stroke-width: 0.8; stroke-linecap: square"/>
     </g>
     <g id="line2d_8">
      <g>
       <use xlink:href="#m900adffbc6" x="198.27973" y="228.439219" style="stroke: #000000; stroke-width: 0.8"/>
      </g>
     </g>
     <g id="text_4">
      <!-- 15000 -->
      <g transform="translate(182.37348 243.037656)scale(0.1 -0.1)">
       <use xlink:href="#DejaVuSans-31"/>
       <use xlink:href="#DejaVuSans-35" x="63.623047"/>
       <use xlink:href="#DejaVuSans-30" x="127.246094"/>
       <use xlink:href="#DejaVuSans-30" x="190.869141"/>
       <use xlink:href="#DejaVuSans-30" x="254.492188"/>
      </g>
     </g>
    </g>
    <g id="xtick_5">
     <g id="line2d_9">
      <path d="M 244.069355 228.439219 
L 244.069355 10.999219 
" clip-path="url(#p52abd06e73)" style="fill: none; stroke: #b0b0b0; stroke-width: 0.8; stroke-linecap: square"/>
     </g>
     <g id="line2d_10">
      <g>
       <use xlink:href="#m900adffbc6" x="244.069355" y="228.439219" style="stroke: #000000; stroke-width: 0.8"/>
      </g>
     </g>
     <g id="text_5">
      <!-- 20000 -->
      <g transform="translate(228.163105 243.037656)scale(0.1 -0.1)">
       <defs>
        <path id="DejaVuSans-32" d="M 1228 531 
L 3431 531 
L 3431 0 
L 469 0 
L 469 531 
Q 828 903 1448 1529 
Q 2069 2156 2228 2338 
Q 2531 2678 2651 2914 
Q 2772 3150 2772 3378 
Q 2772 3750 2511 3984 
Q 2250 4219 1831 4219 
Q 1534 4219 1204 4116 
Q 875 4013 500 3803 
L 500 4441 
Q 881 4594 1212 4672 
Q 1544 4750 1819 4750 
Q 2544 4750 2975 4387 
Q 3406 4025 3406 3419 
Q 3406 3131 3298 2873 
Q 3191 2616 2906 2266 
Q 2828 2175 2409 1742 
Q 1991 1309 1228 531 
z
" transform="scale(0.015625)"/>
       </defs>
       <use xlink:href="#DejaVuSans-32"/>
       <use xlink:href="#DejaVuSans-30" x="63.623047"/>
       <use xlink:href="#DejaVuSans-30" x="127.246094"/>
       <use xlink:href="#DejaVuSans-30" x="190.869141"/>
       <use xlink:href="#DejaVuSans-30" x="254.492188"/>
      </g>
     </g>
    </g>
    <g id="xtick_6">
     <g id="line2d_11">
      <path d="M 289.858979 228.439219 
L 289.858979 10.999219 
" clip-path="url(#p52abd06e73)" style="fill: none; stroke: #b0b0b0; stroke-width: 0.8; stroke-linecap: square"/>
     </g>
     <g id="line2d_12">
      <g>
       <use xlink:href="#m900adffbc6" x="289.858979" y="228.439219" style="stroke: #000000; stroke-width: 0.8"/>
      </g>
     </g>
     <g id="text_6">
      <!-- 25000 -->
      <g transform="translate(273.952729 243.037656)scale(0.1 -0.1)">
       <use xlink:href="#DejaVuSans-32"/>
       <use xlink:href="#DejaVuSans-35" x="63.623047"/>
       <use xlink:href="#DejaVuSans-30" x="127.246094"/>
       <use xlink:href="#DejaVuSans-30" x="190.869141"/>
       <use xlink:href="#DejaVuSans-30" x="254.492188"/>
      </g>
     </g>
    </g>
    <g id="xtick_7">
     <g id="line2d_13">
      <path d="M 335.648604 228.439219 
L 335.648604 10.999219 
" clip-path="url(#p52abd06e73)" style="fill: none; stroke: #b0b0b0; stroke-width: 0.8; stroke-linecap: square"/>
     </g>
     <g id="line2d_14">
      <g>
       <use xlink:href="#m900adffbc6" x="335.648604" y="228.439219" style="stroke: #000000; stroke-width: 0.8"/>
      </g>
     </g>
     <g id="text_7">
      <!-- 30000 -->
      <g transform="translate(319.742354 243.037656)scale(0.1 -0.1)">
       <defs>
        <path id="DejaVuSans-33" d="M 2597 2516 
Q 3050 2419 3304 2112 
Q 3559 1806 3559 1356 
Q 3559 666 3084 287 
Q 2609 -91 1734 -91 
Q 1441 -91 1130 -33 
Q 819 25 488 141 
L 488 750 
Q 750 597 1062 519 
Q 1375 441 1716 441 
Q 2309 441 2620 675 
Q 2931 909 2931 1356 
Q 2931 1769 2642 2001 
Q 2353 2234 1838 2234 
L 1294 2234 
L 1294 2753 
L 1863 2753 
Q 2328 2753 2575 2939 
Q 2822 3125 2822 3475 
Q 2822 3834 2567 4026 
Q 2313 4219 1838 4219 
Q 1578 4219 1281 4162 
Q 984 4106 628 3988 
L 628 4550 
Q 988 4650 1302 4700 
Q 1616 4750 1894 4750 
Q 2613 4750 3031 4423 
Q 3450 4097 3450 3541 
Q 3450 3153 3228 2886 
Q 3006 2619 2597 2516 
z
" transform="scale(0.015625)"/>
       </defs>
       <use xlink:href="#DejaVuSans-33"/>
       <use xlink:href="#DejaVuSans-30" x="63.623047"/>
       <use xlink:href="#DejaVuSans-30" x="127.246094"/>
       <use xlink:href="#DejaVuSans-30" x="190.869141"/>
       <use xlink:href="#DejaVuSans-30" x="254.492188"/>
      </g>
     </g>
    </g>
    <g id="xtick_8">
     <g id="line2d_15">
      <path d="M 381.438229 228.439219 
L 381.438229 10.999219 
" clip-path="url(#p52abd06e73)" style="fill: none; stroke: #b0b0b0; stroke-width: 0.8; stroke-linecap: square"/>
     </g>
     <g id="line2d_16">
      <g>
       <use xlink:href="#m900adffbc6" x="381.438229" y="228.439219" style="stroke: #000000; stroke-width: 0.8"/>
      </g>
     </g>
     <g id="text_8">
      <!-- 35000 -->
      <g transform="translate(365.531979 243.037656)scale(0.1 -0.1)">
       <use xlink:href="#DejaVuSans-33"/>
       <use xlink:href="#DejaVuSans-35" x="63.623047"/>
       <use xlink:href="#DejaVuSans-30" x="127.246094"/>
       <use xlink:href="#DejaVuSans-30" x="190.869141"/>
       <use xlink:href="#DejaVuSans-30" x="254.492188"/>
      </g>
     </g>
    </g>
   </g>
   <g id="matplotlib.axis_2">
    <g id="ytick_1">
     <g id="line2d_17">
      <path d="M 46.965625 228.439219 
L 381.765625 228.439219 
" clip-path="url(#p52abd06e73)" style="fill: none; stroke: #b0b0b0; stroke-width: 0.8; stroke-linecap: square"/>
     </g>
     <g id="line2d_18">
      <defs>
       <path id="m3430f09164" d="M 0 0 
L -3.5 0 
" style="stroke: #000000; stroke-width: 0.8"/>
      </defs>
      <g>
       <use xlink:href="#m3430f09164" x="46.965625" y="228.439219" style="stroke: #000000; stroke-width: 0.8"/>
      </g>
     </g>
     <g id="text_9">
      <!-- 0 -->
      <g transform="translate(33.603125 232.238437)scale(0.1 -0.1)">
       <use xlink:href="#DejaVuSans-30"/>
      </g>
     </g>
    </g>
    <g id="ytick_2">
     <g id="line2d_19">
      <path d="M 46.965625 197.376362 
L 381.765625 197.376362 
" clip-path="url(#p52abd06e73)" style="fill: none; stroke: #b0b0b0; stroke-width: 0.8; stroke-linecap: square"/>
     </g>
     <g id="line2d_20">
      <g>
       <use xlink:href="#m3430f09164" x="46.965625" y="197.376362" style="stroke: #000000; stroke-width: 0.8"/>
      </g>
     </g>
     <g id="text_10">
      <!-- 20 -->
      <g transform="translate(27.240625 201.17558)scale(0.1 -0.1)">
       <use xlink:href="#DejaVuSans-32"/>
       <use xlink:href="#DejaVuSans-30" x="63.623047"/>
      </g>
     </g>
    </g>
    <g id="ytick_3">
     <g id="line2d_21">
      <path d="M 46.965625 166.313504 
L 381.765625 166.313504 
" clip-path="url(#p52abd06e73)" style="fill: none; stroke: #b0b0b0; stroke-width: 0.8; stroke-linecap: square"/>
     </g>
     <g id="line2d_22">
      <g>
       <use xlink:href="#m3430f09164" x="46.965625" y="166.313504" style="stroke: #000000; stroke-width: 0.8"/>
      </g>
     </g>
     <g id="text_11">
      <!-- 40 -->
      <g transform="translate(27.240625 170.112723)scale(0.1 -0.1)">
       <defs>
        <path id="DejaVuSans-34" d="M 2419 4116 
L 825 1625 
L 2419 1625 
L 2419 4116 
z
M 2253 4666 
L 3047 4666 
L 3047 1625 
L 3713 1625 
L 3713 1100 
L 3047 1100 
L 3047 0 
L 2419 0 
L 2419 1100 
L 313 1100 
L 313 1709 
L 2253 4666 
z
" transform="scale(0.015625)"/>
       </defs>
       <use xlink:href="#DejaVuSans-34"/>
       <use xlink:href="#DejaVuSans-30" x="63.623047"/>
      </g>
     </g>
    </g>
    <g id="ytick_4">
     <g id="line2d_23">
      <path d="M 46.965625 135.250647 
L 381.765625 135.250647 
" clip-path="url(#p52abd06e73)" style="fill: none; stroke: #b0b0b0; stroke-width: 0.8; stroke-linecap: square"/>
     </g>
     <g id="line2d_24">
      <g>
       <use xlink:href="#m3430f09164" x="46.965625" y="135.250647" style="stroke: #000000; stroke-width: 0.8"/>
      </g>
     </g>
     <g id="text_12">
      <!-- 60 -->
      <g transform="translate(27.240625 139.049866)scale(0.1 -0.1)">
       <defs>
        <path id="DejaVuSans-36" d="M 2113 2584 
Q 1688 2584 1439 2293 
Q 1191 2003 1191 1497 
Q 1191 994 1439 701 
Q 1688 409 2113 409 
Q 2538 409 2786 701 
Q 3034 994 3034 1497 
Q 3034 2003 2786 2293 
Q 2538 2584 2113 2584 
z
M 3366 4563 
L 3366 3988 
Q 3128 4100 2886 4159 
Q 2644 4219 2406 4219 
Q 1781 4219 1451 3797 
Q 1122 3375 1075 2522 
Q 1259 2794 1537 2939 
Q 1816 3084 2150 3084 
Q 2853 3084 3261 2657 
Q 3669 2231 3669 1497 
Q 3669 778 3244 343 
Q 2819 -91 2113 -91 
Q 1303 -91 875 529 
Q 447 1150 447 2328 
Q 447 3434 972 4092 
Q 1497 4750 2381 4750 
Q 2619 4750 2861 4703 
Q 3103 4656 3366 4563 
z
" transform="scale(0.015625)"/>
       </defs>
       <use xlink:href="#DejaVuSans-36"/>
       <use xlink:href="#DejaVuSans-30" x="63.623047"/>
      </g>
     </g>
    </g>
    <g id="ytick_5">
     <g id="line2d_25">
      <path d="M 46.965625 104.18779 
L 381.765625 104.18779 
" clip-path="url(#p52abd06e73)" style="fill: none; stroke: #b0b0b0; stroke-width: 0.8; stroke-linecap: square"/>
     </g>
     <g id="line2d_26">
      <g>
       <use xlink:href="#m3430f09164" x="46.965625" y="104.18779" style="stroke: #000000; stroke-width: 0.8"/>
      </g>
     </g>
     <g id="text_13">
      <!-- 80 -->
      <g transform="translate(27.240625 107.987009)scale(0.1 -0.1)">
       <defs>
        <path id="DejaVuSans-38" d="M 2034 2216 
Q 1584 2216 1326 1975 
Q 1069 1734 1069 1313 
Q 1069 891 1326 650 
Q 1584 409 2034 409 
Q 2484 409 2743 651 
Q 3003 894 3003 1313 
Q 3003 1734 2745 1975 
Q 2488 2216 2034 2216 
z
M 1403 2484 
Q 997 2584 770 2862 
Q 544 3141 544 3541 
Q 544 4100 942 4425 
Q 1341 4750 2034 4750 
Q 2731 4750 3128 4425 
Q 3525 4100 3525 3541 
Q 3525 3141 3298 2862 
Q 3072 2584 2669 2484 
Q 3125 2378 3379 2068 
Q 3634 1759 3634 1313 
Q 3634 634 3220 271 
Q 2806 -91 2034 -91 
Q 1263 -91 848 271 
Q 434 634 434 1313 
Q 434 1759 690 2068 
Q 947 2378 1403 2484 
z
M 1172 3481 
Q 1172 3119 1398 2916 
Q 1625 2713 2034 2713 
Q 2441 2713 2670 2916 
Q 2900 3119 2900 3481 
Q 2900 3844 2670 4047 
Q 2441 4250 2034 4250 
Q 1625 4250 1398 4047 
Q 1172 3844 1172 3481 
z
" transform="scale(0.015625)"/>
       </defs>
       <use xlink:href="#DejaVuSans-38"/>
       <use xlink:href="#DejaVuSans-30" x="63.623047"/>
      </g>
     </g>
    </g>
    <g id="ytick_6">
     <g id="line2d_27">
      <path d="M 46.965625 73.124933 
L 381.765625 73.124933 
" clip-path="url(#p52abd06e73)" style="fill: none; stroke: #b0b0b0; stroke-width: 0.8; stroke-linecap: square"/>
     </g>
     <g id="line2d_28">
      <g>
       <use xlink:href="#m3430f09164" x="46.965625" y="73.124933" style="stroke: #000000; stroke-width: 0.8"/>
      </g>
     </g>
     <g id="text_14">
      <!-- 100 -->
      <g transform="translate(20.878125 76.924152)scale(0.1 -0.1)">
       <use xlink:href="#DejaVuSans-31"/>
       <use xlink:href="#DejaVuSans-30" x="63.623047"/>
       <use xlink:href="#DejaVuSans-30" x="127.246094"/>
      </g>
     </g>
    </g>
    <g id="ytick_7">
     <g id="line2d_29">
      <path d="M 46.965625 42.062076 
L 381.765625 42.062076 
" clip-path="url(#p52abd06e73)" style="fill: none; stroke: #b0b0b0; stroke-width: 0.8; stroke-linecap: square"/>
     </g>
     <g id="line2d_30">
      <g>
       <use xlink:href="#m3430f09164" x="46.965625" y="42.062076" style="stroke: #000000; stroke-width: 0.8"/>
      </g>
     </g>
     <g id="text_15">
      <!-- 120 -->
      <g transform="translate(20.878125 45.861295)scale(0.1 -0.1)">
       <use xlink:href="#DejaVuSans-31"/>
       <use xlink:href="#DejaVuSans-32" x="63.623047"/>
       <use xlink:href="#DejaVuSans-30" x="127.246094"/>
      </g>
     </g>
    </g>
    <g id="ytick_8">
     <g id="line2d_31">
      <path d="M 46.965625 10.999219 
L 381.765625 10.999219 
" clip-path="url(#p52abd06e73)" style="fill: none; stroke: #b0b0b0; stroke-width: 0.8; stroke-linecap: square"/>
     </g>
     <g id="line2d_32">
      <g>
       <use xlink:href="#m3430f09164" x="46.965625" y="10.999219" style="stroke: #000000; stroke-width: 0.8"/>
      </g>
     </g>
     <g id="text_16">
      <!-- 140 -->
      <g transform="translate(20.878125 14.798437)scale(0.1 -0.1)">
       <use xlink:href="#DejaVuSans-31"/>
       <use xlink:href="#DejaVuSans-34" x="63.623047"/>
       <use xlink:href="#DejaVuSans-30" x="127.246094"/>
      </g>
     </g>
    </g>
    <g id="text_17">
     <!-- Frequency -->
     <g transform="translate(14.798438 145.548906)rotate(-90)scale(0.1 -0.1)">
      <defs>
       <path id="DejaVuSans-46" d="M 628 4666 
L 3309 4666 
L 3309 4134 
L 1259 4134 
L 1259 2759 
L 3109 2759 
L 3109 2228 
L 1259 2228 
L 1259 0 
L 628 0 
L 628 4666 
z
" transform="scale(0.015625)"/>
       <path id="DejaVuSans-72" d="M 2631 2963 
Q 2534 3019 2420 3045 
Q 2306 3072 2169 3072 
Q 1681 3072 1420 2755 
Q 1159 2438 1159 1844 
L 1159 0 
L 581 0 
L 581 3500 
L 1159 3500 
L 1159 2956 
Q 1341 3275 1631 3429 
Q 1922 3584 2338 3584 
Q 2397 3584 2469 3576 
Q 2541 3569 2628 3553 
L 2631 2963 
z
" transform="scale(0.015625)"/>
       <path id="DejaVuSans-65" d="M 3597 1894 
L 3597 1613 
L 953 1613 
Q 991 1019 1311 708 
Q 1631 397 2203 397 
Q 2534 397 2845 478 
Q 3156 559 3463 722 
L 3463 178 
Q 3153 47 2828 -22 
Q 2503 -91 2169 -91 
Q 1331 -91 842 396 
Q 353 884 353 1716 
Q 353 2575 817 3079 
Q 1281 3584 2069 3584 
Q 2775 3584 3186 3129 
Q 3597 2675 3597 1894 
z
M 3022 2063 
Q 3016 2534 2758 2815 
Q 2500 3097 2075 3097 
Q 1594 3097 1305 2825 
Q 1016 2553 972 2059 
L 3022 2063 
z
" transform="scale(0.015625)"/>
       <path id="DejaVuSans-71" d="M 947 1747 
Q 947 1113 1208 752 
Q 1469 391 1925 391 
Q 2381 391 2643 752 
Q 2906 1113 2906 1747 
Q 2906 2381 2643 2742 
Q 2381 3103 1925 3103 
Q 1469 3103 1208 2742 
Q 947 2381 947 1747 
z
M 2906 525 
Q 2725 213 2448 61 
Q 2172 -91 1784 -91 
Q 1150 -91 751 415 
Q 353 922 353 1747 
Q 353 2572 751 3078 
Q 1150 3584 1784 3584 
Q 2172 3584 2448 3432 
Q 2725 3281 2906 2969 
L 2906 3500 
L 3481 3500 
L 3481 -1331 
L 2906 -1331 
L 2906 525 
z
" transform="scale(0.015625)"/>
       <path id="DejaVuSans-75" d="M 544 1381 
L 544 3500 
L 1119 3500 
L 1119 1403 
Q 1119 906 1312 657 
Q 1506 409 1894 409 
Q 2359 409 2629 706 
Q 2900 1003 2900 1516 
L 2900 3500 
L 3475 3500 
L 3475 0 
L 2900 0 
L 2900 538 
Q 2691 219 2414 64 
Q 2138 -91 1772 -91 
Q 1169 -91 856 284 
Q 544 659 544 1381 
z
M 1991 3584 
L 1991 3584 
z
" transform="scale(0.015625)"/>
       <path id="DejaVuSans-6e" d="M 3513 2113 
L 3513 0 
L 2938 0 
L 2938 2094 
Q 2938 2591 2744 2837 
Q 2550 3084 2163 3084 
Q 1697 3084 1428 2787 
Q 1159 2491 1159 1978 
L 1159 0 
L 581 0 
L 581 3500 
L 1159 3500 
L 1159 2956 
Q 1366 3272 1645 3428 
Q 1925 3584 2291 3584 
Q 2894 3584 3203 3211 
Q 3513 2838 3513 2113 
z
" transform="scale(0.015625)"/>
       <path id="DejaVuSans-63" d="M 3122 3366 
L 3122 2828 
Q 2878 2963 2633 3030 
Q 2388 3097 2138 3097 
Q 1578 3097 1268 2742 
Q 959 2388 959 1747 
Q 959 1106 1268 751 
Q 1578 397 2138 397 
Q 2388 397 2633 464 
Q 2878 531 3122 666 
L 3122 134 
Q 2881 22 2623 -34 
Q 2366 -91 2075 -91 
Q 1284 -91 818 406 
Q 353 903 353 1747 
Q 353 2603 823 3093 
Q 1294 3584 2113 3584 
Q 2378 3584 2631 3529 
Q 2884 3475 3122 3366 
z
" transform="scale(0.015625)"/>
       <path id="DejaVuSans-79" d="M 2059 -325 
Q 1816 -950 1584 -1140 
Q 1353 -1331 966 -1331 
L 506 -1331 
L 506 -850 
L 844 -850 
Q 1081 -850 1212 -737 
Q 1344 -625 1503 -206 
L 1606 56 
L 191 3500 
L 800 3500 
L 1894 763 
L 2988 3500 
L 3597 3500 
L 2059 -325 
z
" transform="scale(0.015625)"/>
      </defs>
      <use xlink:href="#DejaVuSans-46"/>
      <use xlink:href="#DejaVuSans-72" x="50.269531"/>
      <use xlink:href="#DejaVuSans-65" x="89.132812"/>
      <use xlink:href="#DejaVuSans-71" x="150.65625"/>
      <use xlink:href="#DejaVuSans-75" x="214.132812"/>
      <use xlink:href="#DejaVuSans-65" x="277.511719"/>
      <use xlink:href="#DejaVuSans-6e" x="339.035156"/>
      <use xlink:href="#DejaVuSans-63" x="402.414062"/>
      <use xlink:href="#DejaVuSans-79" x="457.394531"/>
     </g>
    </g>
   </g>
   <g id="patch_53">
    <path d="M 46.965625 228.439219 
L 46.965625 10.999219 
" style="fill: none; stroke: #000000; stroke-width: 0.8; stroke-linejoin: miter; stroke-linecap: square"/>
   </g>
   <g id="patch_54">
    <path d="M 381.765625 228.439219 
L 381.765625 10.999219 
" style="fill: none; stroke: #000000; stroke-width: 0.8; stroke-linejoin: miter; stroke-linecap: square"/>
   </g>
   <g id="patch_55">
    <path d="M 46.965625 228.439219 
L 381.765625 228.439219 
" style="fill: none; stroke: #000000; stroke-width: 0.8; stroke-linejoin: miter; stroke-linecap: square"/>
   </g>
   <g id="patch_56">
    <path d="M 46.965625 10.999219 
L 381.765625 10.999219 
" style="fill: none; stroke: #000000; stroke-width: 0.8; stroke-linejoin: miter; stroke-linecap: square"/>
   </g>
  </g>
 </g>
 <defs>
  <clipPath id="p52abd06e73">
   <rect x="46.965625" y="10.999219" width="334.8" height="217.44"/>
  </clipPath>
 </defs>
</svg>
